HIERARCHY
ROOT hip
{
	OFFSET 0.000000 0.000000 0.000000 
	CHANNELS 6 Xposition Yposition Zposition Xrotation Zrotation Yrotation
	JOINT abdomen
	{
		OFFSET 0.000000 3.402643 0.000000 
		CHANNELS 3 Xrotation Zrotation Yrotation
		JOINT chest
		{
			OFFSET 0.000000 8.438565 -0.680529 
			CHANNELS 3 Xrotation Zrotation Yrotation
			JOINT neck
			{
				OFFSET 0.000000 10.207942 -0.272212 
				CHANNELS 3 Xrotation Zrotation Yrotation
				JOINT head
				{
					OFFSET 0.000000 3.130431 0.000000 
					CHANNELS 3 Xrotation Zrotation Yrotation
					End Site
					{
						OFFSET 0.000000 3.130435 0.000000 
					}
				}
			}
			JOINT lCollar
			{
				OFFSET 3.470700 6.669187 -0.816635 
				CHANNELS 3 Yrotation Zrotation Xrotation
				JOINT lShldr
				{
					OFFSET 3.198488 0.000000 0.000000 
					CHANNELS 3 Zrotation Yrotation Xrotation
					JOINT lForeArm
					{
						OFFSET 10.139888 0.000000 0.000000 
						CHANNELS 3 Yrotation Zrotation Xrotation
						JOINT lHand
						{
							OFFSET 8.370511 0.000000 0.000000 
							CHANNELS 3 Zrotation Yrotation Xrotation
							End Site
							{
								OFFSET 4.083176 0.000000 0.000000 
							}
						}
					}
				}
			}
			JOINT rCollar
			{
				OFFSET -3.470700 6.669187 -0.816635 
				CHANNELS 3 Yrotation Zrotation Xrotation
				JOINT rShldr
				{
					OFFSET -3.198488 0.000000 0.000000 
					CHANNELS 3 Zrotation Yrotation Xrotation
					JOINT rForeArm
					{
						OFFSET -10.139888 0.000000 0.000000 
						CHANNELS 3 Yrotation Zrotation Xrotation
						JOINT rHand
						{
							OFFSET -8.370511 0.000000 0.000000 
							CHANNELS 3 Zrotation Yrotation Xrotation
							End Site
							{
								OFFSET -4.083176 0.000000 0.000000 
							}
						}
					}
				}
			}
		}
	}
	JOINT lThigh
	{
		OFFSET 5.308129 -1.633274 1.361059 
		CHANNELS 3 Xrotation Zrotation Yrotation
		JOINT lShin
		{
			OFFSET -2.041588 -20.007561 0.000000 
			CHANNELS 3 Xrotation Zrotation Yrotation
			JOINT lFoot
			{
				OFFSET 0.000000 -19.190928 -1.224953 
				CHANNELS 3 Xrotation Yrotation Zrotation
				End Site
				{
					OFFSET 0.000000 -2.449906 4.627600 
				}
			}
		}
	}
	JOINT rThigh
	{
		OFFSET -5.308129 -1.633274 1.361059 
		CHANNELS 3 Xrotation Zrotation Yrotation
		JOINT rShin
		{
			OFFSET 2.041588 -20.007561 0.000000 
			CHANNELS 3 Xrotation Zrotation Yrotation
			JOINT rFoot
			{
				OFFSET 0.000000 -19.190928 -1.224953 
				CHANNELS 3 Xrotation Yrotation Zrotation
				End Site
				{
					OFFSET 0.000000 -2.449906 4.627600 
				}
			}
		}
	}
}
MOTION
Frames: 11
Frame Time: 0.016667
-5.240007 45.542892 -0.206912 2.812346 1.419172 -23.112965 32.207260 3.427680 -0.322273 -3.160088 -2.593470 5.933571 52.897259 -1.962822 -0.478904 -37.919888 1.229499 2.276124 18.986103 -1.184904 24.414936 -76.559608 10.858624 16.739687 -59.348148 40.488846 22.793495 -75.099808 -60.119606 61.042301 11.329611 0.851906 24.995880 22.245375 56.074654 74.258713 -80.559151 -13.284855 -122.696945 70.965302 42.067730 48.433041 -3.966978 20.762688 24.985371 54.164696 -3.005322 -3.066328 -7.287925 -3.372056 -13.313700 -21.773773 -17.994839 -3.684730 58.841621 8.534586 6.334704 -7.290859 0.119353 15.375633 
-5.214633 45.279285 -0.321359 3.428713 1.027436 -22.650171 32.207260 3.427680 -0.322273 -3.205875 -1.757523 6.116086 52.458775 -3.544730 -0.596979 -37.487621 3.599488 6.546623 19.039455 -1.792221 24.620937 -76.958298 5.587900 16.093044 -59.564316 44.023338 17.278482 -81.238693 -54.986282 66.819214 11.254470 0.132211 24.996244 26.131456 52.952118 77.721382 -77.429031 -16.767504 -116.287949 68.683266 44.402119 46.875072 -5.548566 21.670643 25.298128 55.906467 -2.605490 -3.051889 -7.178000 -3.654319 -13.964586 -22.859085 -17.361498 -3.410486 59.781414 8.437258 6.408037 -7.929214 -0.778018 15.569324 
-5.189254 45.015778 -0.435831 4.034806 0.641927 -22.208408 32.207260 3.427680 -0.322273 -3.235488 -0.912427 6.299581 52.025101 -5.126577 -0.696694 -36.876675 5.918650 10.839899 19.097002 -2.402208 24.820980 -77.293709 0.320071 15.488053 -59.300304 47.549885 11.430375 -85.861542 -49.583866 71.069725 11.170475 -0.591421 25.000000 29.444324 49.718906 80.617844 -73.843414 -19.881258 -109.564911 66.216225 46.690403 45.107086 -7.129044 22.587351 25.584435 57.644222 -2.205467 -3.033718 -7.067543 -3.948872 -14.608001 -23.947840 -16.723135 -3.147500 60.719780 8.349440 6.476229 -8.541914 -1.661137 15.748816 
-5.157091 44.864872 -0.577350 4.842341 0.782841 -21.232529 32.207260 3.427680 -0.322273 -3.537305 -0.902703 6.309346 50.645515 -6.005340 -0.757021 -35.814358 7.968044 14.656867 18.917248 -2.037297 24.701689 -76.682968 -5.029191 14.956147 -64.213654 49.866898 7.082626 -86.522751 -43.128189 70.422623 10.629587 -1.287024 24.999332 32.631630 45.883026 83.653923 -69.178749 -26.286379 -96.851715 69.698227 50.796875 49.120628 -9.961505 23.764105 25.870539 60.014378 -1.414976 -2.966187 -5.531451 -6.619295 -14.200591 -25.149624 -16.733624 -3.098393 61.300995 8.397838 6.550492 -8.850347 -2.645961 15.948937 
-5.124909 44.714115 -0.718846 5.651614 0.907012 -20.256510 32.207260 3.427680 -0.322273 -3.838966 -0.892997 6.309347 49.265427 -6.884106 -0.797018 -34.609573 9.937123 18.530087 18.725985 -1.669933 24.575230 -76.018051 -10.367538 14.348527 -69.095886 52.412815 2.855961 -87.212776 -36.681915 69.748985 10.092871 -1.968797 24.996002 35.343933 41.939762 86.219582 -62.712399 -31.525011 -82.840652 73.985924 54.724377 53.924419 -12.802703 24.973099 26.122303 62.385494 -0.649260 -2.873638 -3.962945 -9.271381 -13.707120 -26.370909 -16.744074 -3.037330 61.911888 8.447316 6.629342 -9.161928 -3.648975 16.146784 
-5.070073 44.740971 -0.834514 6.588950 1.604494 -19.226505 32.207260 3.427680 -0.322273 -4.467785 -1.582597 6.164335 47.492958 -7.557796 -0.838279 -33.327503 11.395083 21.310446 18.299467 -0.723553 24.271587 -73.374496 -15.059565 13.428236 -76.704262 54.026093 3.588893 -86.202103 -33.275997 66.792336 9.345114 -2.379949 25.000000 37.312187 38.151047 88.431740 -54.135944 -40.046295 -66.986000 75.651108 58.740353 53.656048 -16.005045 26.230858 26.330244 64.325256 -0.338424 -2.878138 -1.303435 -13.007973 -12.428529 -27.492849 -17.241350 -3.157121 61.778446 8.378263 6.580791 -9.066676 -4.467528 16.269785 
-5.015182 44.767979 -0.950106 7.538275 2.291715 -18.188852 32.207260 3.427680 -0.322273 -5.103915 -2.282278 6.020169 45.708855 -8.231511 -0.859032 -31.964928 12.786425 24.131474 17.870556 0.232170 23.976624 -70.582680 -19.703529 12.257520 -84.644371 55.554939 4.719820 -85.434341 -29.831907 64.008865 8.596796 -2.790335 24.999754 39.002708 34.309139 90.378494 -41.513378 -46.061176 -47.526169 77.485443 62.768044 53.602325 -19.246939 27.521238 26.416218 66.284607 -0.045753 -2.853962 1.457884 -16.675798 -10.926790 -28.628143 -17.741125 -3.255439 61.673950 8.310205 6.555084 -8.966106 -5.313511 16.391981 
-4.898241 44.973183 -0.981905 8.208744 3.179526 -17.312418 32.207260 3.427680 -0.322273 -5.687482 -3.196310 5.829195 44.310551 -8.895381 -0.910282 -31.034369 13.399152 25.752008 17.424261 1.320356 23.658226 -65.835938 -23.422655 10.530460 -89.843925 56.645573 6.597458 -84.542442 -28.567190 61.345043 7.762136 -2.990893 24.998159 39.901478 31.096584 91.854675 -26.062956 -51.454308 -28.795494 72.190292 64.870491 45.164566 -21.337952 28.466700 26.520517 67.122337 -0.537214 -2.970522 3.583712 -19.014278 -9.704060 -29.001741 -18.523911 -3.525301 60.733967 8.143863 6.431605 -8.505816 -6.002707 16.373823 
-4.781240 45.178478 -1.013622 8.883875 4.056661 -16.419050 32.207260 3.427680 -0.322273 -6.265928 -4.120652 5.639183 42.910156 -9.559281 -0.942421 -30.087048 14.000790 27.374088 16.990091 2.416340 23.358389 -60.824821 -26.996086 8.422914 -95.248718 57.638184 8.702050 -83.730537 -27.268093 58.728420 6.922759 -3.181949 24.990965 40.679802 27.852776 93.232224 -7.426689 -52.971451 -6.943890 65.746506 66.589157 35.599720 -23.435644 29.395584 26.617943 67.937531 -1.012575 -3.124250 5.842758 -21.297262 -8.344707 -29.380348 -19.313272 -3.766226 59.782967 7.997968 6.321372 -8.060525 -6.694044 16.369822 
-4.596170 45.494125 -0.956816 9.328433 4.689627 -15.805634 32.207260 3.427680 -0.322273 -6.781065 -4.695048 5.516311 42.232372 -10.076674 -0.982638 -29.702345 14.140308 28.020788 16.686605 3.370361 23.103697 -55.284695 -29.394707 6.134384 -96.603264 58.753738 9.027732 -83.427818 -26.876839 57.503971 6.053873 -3.351856 24.997774 40.987362 25.338594 94.230217 9.595336 -53.668625 14.851274 45.970177 64.612350 10.312751 -24.178795 29.995056 26.776110 67.649490 -1.665968 -3.245139 6.546065 -21.620710 -7.773027 -29.002022 -19.871700 -3.969633 58.178951 7.860970 6.141838 -7.324409 -7.430220 16.354742 
-4.411045 45.809803 -0.899951 9.789019 5.316407 -15.193333 32.207260 3.427680 -0.322273 -7.294631 -5.269579 5.402895 41.543747 -10.594084 -1.015021 -29.323381 14.275705 28.669785 16.374563 4.316849 22.848412 -49.498219 -31.582409 3.513519 -98.002930 59.856220 9.396301 -83.134102 -26.480881 56.282124 5.180338 -3.512662 24.998764 41.231506 22.811527 95.191795 25.450039 -50.625557 35.522194 31.499937 59.653412 -9.741335 -24.920513 30.598335 26.932402 67.347527 -2.300776 -3.377171 7.303978 -21.932556 -7.186486 -28.631243 -20.428511 -4.185406 56.575768 7.724241 5.960959 -6.592760 -8.162472 16.351627 
